<svg width="12" height="10" viewBox="0 0 12 10" fill="none" xmlns="http://www.w3.org/2000/svg">
<path d="M4.77938 9.16736C4.72719 9.11652 4.50405 8.92456 4.3205 8.74575C3.1661 7.69741 1.2766 4.96263 0.699858 3.53125C0.607182 3.31387 0.411034 2.76429 0.398438 2.47065C0.398438 2.18928 0.46322 1.92106 0.594585 1.66511C0.778137 1.34605 1.06696 1.09011 1.40797 0.949862C1.64461 0.859579 2.35272 0.719333 2.36532 0.719333C3.14001 0.579088 4.39878 0.501953 5.78981 0.501953C7.11516 0.501953 8.32264 0.579088 9.10903 0.693914C9.12162 0.707062 10.0016 0.847307 10.303 1.0007C10.8537 1.28207 11.1956 1.83165 11.1956 2.41981V2.47065C11.1821 2.85369 10.8402 3.65923 10.8276 3.65923C10.2499 5.01347 8.4531 7.68514 7.25912 8.7589C7.25912 8.7589 6.9523 9.0613 6.76065 9.19278C6.48532 9.39789 6.14431 9.49957 5.8033 9.49957C5.42271 9.49957 5.0682 9.38474 4.77938 9.16736Z" fill="#777E90" fill-opacity="0.41"/>
</svg>
