<svg xmlns="http://www.w3.org/2000/svg" width="24" height="24" viewBox="0 0 24 24" fill="none">
  <g clip-path="url(#clip0_981_40497)">
    <path opacity="0.3" d="M6.43985 9.86L7.01985 5H5.04985L4.03985 9.36C3.93985 9.78 4.02985 10.2 4.28985 10.53C4.42985 10.71 4.72985 11 5.22985 11C5.83985 11 6.35985 10.51 6.43985 9.86Z" fill="#B1B5C3"/>
    <path opacity="0.3" d="M9.70964 11C10.4496 11 10.9996 10.41 10.9996 9.69V5H9.03964L8.48964 9.52C8.43964 9.91 8.55964 10.3 8.81964 10.59C9.04964 10.85 9.36964 11 9.70964 11Z" fill="#B1B5C3"/>
    <path opacity="0.3" d="M14.22 11C14.63 11 14.94 10.85 15.18 10.59C15.43 10.3 15.55 9.91 15.51 9.52L14.96 5H13V9.69C13 10.41 13.55 11 14.22 11Z" fill="#B1B5C3"/>
    <path opacity="0.3" d="M18.9095 4.99023L16.9795 5.00023L17.5595 9.86023C17.6395 10.5102 18.1595 11.0002 18.7695 11.0002C19.2595 11.0002 19.5695 10.7102 19.6995 10.5302C19.9595 10.2002 20.0495 9.77023 19.9495 9.36023L18.9095 4.99023Z" fill="#B1B5C3"/>
    <path d="M21.8995 8.89L20.8495 4.52C20.6295 3.62 19.8495 3 18.9395 3H5.04952C4.14952 3 3.35952 3.63 3.14952 4.52L2.09952 8.89C1.85952 9.91 2.07952 10.95 2.71952 11.77C2.79952 11.88 2.90952 11.96 2.99952 12.06V19C2.99952 20.1 3.89952 21 4.99952 21H18.9995C20.0995 21 20.9995 20.1 20.9995 19V12.06C21.0895 11.97 21.1995 11.88 21.2795 11.78C21.9195 10.96 22.1495 9.91 21.8995 8.89ZM12.9995 5H14.9595L15.4995 9.52C15.5495 9.91 15.4295 10.3 15.1695 10.59C14.9495 10.85 14.6295 11 14.2195 11C13.5495 11 12.9995 10.41 12.9995 9.69V5ZM8.48952 9.52L9.03952 5H10.9995V9.69C10.9995 10.41 10.4495 11 9.70952 11C9.36952 11 9.05952 10.85 8.81952 10.59C8.56952 10.3 8.44952 9.91 8.48952 9.52ZM4.28952 10.53C4.02952 10.2 3.93952 9.77 4.03952 9.36L5.04952 5H7.01952L6.43952 9.86C6.35952 10.51 5.83952 11 5.22952 11C4.72952 11 4.42952 10.71 4.28952 10.53ZM18.9995 19H4.99952V12.97C5.07952 12.98 5.14952 13 5.22952 13C6.09952 13 6.88952 12.64 7.46952 12.05C8.06952 12.65 8.86952 13 9.77952 13C10.6495 13 11.4295 12.64 12.0095 12.07C12.5995 12.64 13.3995 13 14.2995 13C15.1395 13 15.9395 12.65 16.5395 12.05C17.1195 12.64 17.9095 13 18.7795 13C18.8595 13 18.9295 12.98 19.0095 12.97V19H18.9995ZM19.7095 10.53C19.5695 10.71 19.2695 11 18.7695 11C18.1595 11 17.6295 10.51 17.5595 9.86L16.9795 5L18.9095 4.99L19.9595 9.36C20.0595 9.78 19.9695 10.21 19.7095 10.53Z" fill="#B1B5C3"/>
  </g>
  <defs>
    <clipPath id="clip0_981_40497">
      <rect width="24" height="24" fill="white"/>
    </clipPath>
  </defs>
</svg>