<svg width="24" height="21" viewBox="0 0 24 21" fill="none" xmlns="http://www.w3.org/2000/svg">
<path d="M1.48828 1.25L3.85204 1.61L4.94642 13.083C5.03393 14.02 5.92375 14.739 6.99199 14.736H19.3892C20.4086 14.738 21.2734 14.078 21.4178 13.19L22.4962 6.632C22.6167 5.899 22.0382 5.219 21.2064 5.113C21.1337 5.104 4.23161 5.099 4.23161 5.099" stroke="#F9F9F9" stroke-width="1.5" stroke-linecap="round" stroke-linejoin="round"/>
<path d="M14.415 8.79492H17.5663" stroke="#F9F9F9" stroke-width="1.5" stroke-linecap="round" stroke-linejoin="round"/>
<path fill-rule="evenodd" clip-rule="evenodd" d="M6.49322 18.2031C6.83528 18.2031 7.11143 18.4471 7.11143 18.7471C7.11143 19.0481 6.83528 19.2921 6.49322 19.2921C6.15115 19.2921 5.875 19.0481 5.875 18.7471C5.875 18.4471 6.15115 18.2031 6.49322 18.2031Z" fill="#F9F9F9" stroke="#F9F9F9" stroke-width="1.5" stroke-linecap="round" stroke-linejoin="round"/>
<path fill-rule="evenodd" clip-rule="evenodd" d="M19.3126 18.2031C19.6546 18.2031 19.9319 18.4471 19.9319 18.7471C19.9319 19.0481 19.6546 19.2921 19.3126 19.2921C18.9705 19.2921 18.6943 19.0481 18.6943 18.7471C18.6943 18.4471 18.9705 18.2031 19.3126 18.2031Z" fill="#F9F9F9" stroke="#F9F9F9" stroke-width="1.5" stroke-linecap="round" stroke-linejoin="round"/>
</svg>
