<svg xmlns="http://www.w3.org/2000/svg" width="30" height="24" viewBox="0 0 30 24" fill="none">
<path fill-rule="evenodd" clip-rule="evenodd" d="M3.6543 6.5C3.6543 3.87479 3.68855 3 7.91875 3C12.1489 3 12.1832 3.87479 12.1832 6.5C12.1832 9.12521 12.1967 10 7.91875 10C3.64081 10 3.6543 9.12521 3.6543 6.5Z" stroke="#F9F9F9" stroke-width="1.5" stroke-linecap="round" stroke-linejoin="round"/>
<path fill-rule="evenodd" clip-rule="evenodd" d="M17.0566 6.5C17.0566 3.87479 17.0909 3 21.3211 3C25.5513 3 25.5855 3.87479 25.5855 6.5C25.5855 9.12521 25.599 10 21.3211 10C17.0431 10 17.0566 9.12521 17.0566 6.5Z" stroke="#F9F9F9" stroke-width="1.5" stroke-linecap="round" stroke-linejoin="round"/>
<path fill-rule="evenodd" clip-rule="evenodd" d="M3.6543 17.5C3.6543 14.8748 3.68855 14 7.91875 14C12.1489 14 12.1832 14.8748 12.1832 17.5C12.1832 20.1252 12.1967 21 7.91875 21C3.64081 21 3.6543 20.1252 3.6543 17.5Z" stroke="#F9F9F9" stroke-width="1.5" stroke-linecap="round" stroke-linejoin="round"/>
<path fill-rule="evenodd" clip-rule="evenodd" d="M17.0566 17.5C17.0566 14.8748 17.0909 14 21.3211 14C25.5513 14 25.5855 14.8748 25.5855 17.5C25.5855 20.1252 25.599 21 21.3211 21C17.0431 21 17.0566 20.1252 17.0566 17.5Z" stroke="#F9F9F9" stroke-width="1.5" stroke-linecap="round" stroke-linejoin="round"/>
</svg>