<svg width="23" height="20" viewBox="0 0 23 20" fill="none" xmlns="http://www.w3.org/2000/svg">
<path fill-rule="evenodd" clip-rule="evenodd" d="M1.13477 4.5C1.13477 1.87479 1.16671 1 5.11225 1C9.05779 1 9.08974 1.87479 9.08974 4.5C9.08974 7.12521 9.10232 8 5.11225 8C1.12218 8 1.13477 7.12521 1.13477 4.5Z" stroke="#B1B5C3" stroke-width="1.5" stroke-linecap="round" stroke-linejoin="round"/>
<path fill-rule="evenodd" clip-rule="evenodd" d="M13.6357 4.5C13.6357 1.87479 13.6677 1 17.6132 1C21.5588 1 21.5907 1.87479 21.5907 4.5C21.5907 7.12521 21.6033 8 17.6132 8C13.6232 8 13.6357 7.12521 13.6357 4.5Z" stroke="#B1B5C3" stroke-width="1.5" stroke-linecap="round" stroke-linejoin="round"/>
<path fill-rule="evenodd" clip-rule="evenodd" d="M1.13477 15.5C1.13477 12.8748 1.16671 12 5.11225 12C9.05779 12 9.08974 12.8748 9.08974 15.5C9.08974 18.1252 9.10232 19 5.11225 19C1.12218 19 1.13477 18.1252 1.13477 15.5Z" stroke="#B1B5C3" stroke-width="1.5" stroke-linecap="round" stroke-linejoin="round"/>
<path fill-rule="evenodd" clip-rule="evenodd" d="M13.6357 15.5C13.6357 12.8748 13.6677 12 17.6132 12C21.5588 12 21.5907 12.8748 21.5907 15.5C21.5907 18.1252 21.6033 19 17.6132 19C13.6232 19 13.6357 18.1252 13.6357 15.5Z" stroke="#B1B5C3" stroke-width="1.5" stroke-linecap="round" stroke-linejoin="round"/>
</svg>
