<svg width="38" height="28" viewBox="0 0 38 28" fill="none" xmlns="http://www.w3.org/2000/svg">
<mask id="mask0_71_3032" style="mask-type:alpha" maskUnits="userSpaceOnUse" x="0" y="0" width="38" height="28">
<path d="M1.41462 7.34694C1.86305 3.80199 4.77118 1.24223 8.33219 0.947219C11.2257 0.707509 14.9621 0.490234 19.0004 0.490234C23.0386 0.490234 26.7751 0.707508 29.6686 0.947219C33.2296 1.24223 36.1377 3.80199 36.5862 7.34694C36.8273 9.25351 37.0135 11.5263 37.0135 14C37.0135 16.4738 36.8273 18.7466 36.5862 20.6532C36.1377 24.1981 33.2296 26.7579 29.6686 27.0529C26.7751 27.2926 23.0386 27.5099 19.0004 27.5099C14.9621 27.5099 11.2257 27.2926 8.33219 27.0529C4.77118 26.7579 1.86305 24.1981 1.41462 20.6532C1.17344 18.7466 0.987305 16.4738 0.987305 14C0.987305 11.5263 1.17344 9.25351 1.41462 7.34694Z" fill="#00D0BF"/>
</mask>
<g mask="url(#mask0_71_3032)">
<rect x="0.987305" y="-4.0127" width="12.0087" height="36.7767" fill="#59C785"/>
<rect x="12.9961" y="-4.0127" width="12.0087" height="36.7767" fill="white"/>
<rect x="25.0049" y="-4.0127" width="12.0087" height="36.7767" fill="#59C785"/>
</g>
</svg>
